<svg xmlns="http://www.w3.org/2000/svg" viewBox="0 -0.5 32 32" shape-rendering="crispEdges">
<metadata>Made with Pixels to Svg https://codepen.io/shshaw/pen/XbxvNj</metadata>
<path stroke="#2a2826" d="M10 4h5M16 4h2M10 5h1M14 5h2M18 5h2M11 6h1M15 6h2M19 6h2M12 7h1M17 7h2M20 7h1M13 8h2M19 8h2M15 9h2M20 9h2M17 10h2M21 10h1M19 11h1M21 11h1M10 14h12M10 15h1M21 15h1M10 16h1M21 16h1M10 17h1M21 17h1M10 18h1M21 18h1M10 19h1M21 19h1M10 20h1M21 20h1M10 21h1M21 21h1M10 22h1M21 22h1M10 23h1M21 23h1M12 25h8" />
<path stroke="#d2d2d2" d="M15 4h1M12 5h1M19 7h1M11 24h1M20 24h1" />
<path stroke="#696a6a" d="M11 5h1M12 6h1M13 7h2M15 8h2M17 9h2M19 10h1M20 11h1M12 23h2M15 23h2M18 23h2" />
<path stroke="#ededed" d="M13 5h1M16 5h2M13 6h2M17 6h2M15 7h2M17 8h2M19 9h1M11 15h1M14 15h1M17 15h1M20 15h1M11 16h1M14 16h1M17 16h1M20 16h1M11 17h1M14 17h1M17 17h1M20 17h1M11 18h1M14 18h1M17 18h1M20 18h1M11 19h1M14 19h1M17 19h1M20 19h1M11 20h1M14 20h1M17 20h1M20 20h1M11 21h1M14 21h1M17 21h1M20 21h1M11 22h1M14 22h1M17 22h1M20 22h1M11 23h1M14 23h1M17 23h1M20 23h1M12 24h8" />
<path stroke="#8d8d8d" d="M20 10h1M12 15h2M15 15h2M18 15h2M12 16h2M15 16h2M18 16h2M12 17h2M15 17h2M18 17h2M12 18h2M15 18h2M18 18h2M12 19h2M15 19h2M18 19h2M12 20h2M15 20h2M18 20h2M12 21h2M15 21h2M18 21h2M12 22h2M15 22h2M18 22h2" />
<path stroke="#000000" d="M11 11h1M17 11h1M11 12h2M16 12h2" />
<path stroke="#f9d500" d="M11 13h7" />
<path stroke="#595652" d="M10 24h1M21 24h1M11 25h1M20 25h1" />
</svg>