<?xml version="1.0" standalone="no"?>
<!DOCTYPE svg PUBLIC "-//W3C//DTD SVG 20010904//EN"
 "http://www.w3.org/TR/2001/REC-SVG-20010904/DTD/svg10.dtd">
<svg version="1.0" xmlns="http://www.w3.org/2000/svg"
 width="128.000000pt" height="128.000000pt" viewBox="0 0 128.000000 128.000000"
 preserveAspectRatio="xMidYMid meet">

<g transform="translate(0.000000,128.000000) scale(0.100000,-0.100000)"
fill="#000000" stroke="none">
<path d="M800 905 l0 -105 -375 0 -375 0 0 -160 0 -160 375 0 375 0 0 -105 0
-105 55 0 55 0 0 50 0 50 50 0 50 0 0 55 0 55 55 0 55 0 0 55 0 55 55 0 55 0
0 50 0 50 -55 0 -55 0 0 55 0 55 -55 0 -55 0 0 55 0 55 -50 0 -50 0 0 50 0 50
-55 0 -55 0 0 -105z"/>
</g>
</svg>
