<?xml version="1.0" encoding="iso-8859-1"?>
<!-- Generator: Adobe Illustrator 18.1.1, SVG Export Plug-In . SVG Version: 6.00 Build 0)  -->
<svg version="1.1" id="Capa_1" xmlns="http://www.w3.org/2000/svg" xmlns:xlink="http://www.w3.org/1999/xlink" x="0px" y="0px"
	 viewBox="0 0 429.473 429.473" style="enable-background:new 0 0 429.473 429.473;" xml:space="preserve">
<g>
	<g>
		<path style="fill:#010002;" d="M373.244,48.771h-79.936V8.129c0-4.487-3.633-8.129-8.129-8.129H142.49
			c-4.487,0-8.129,3.642-8.129,8.129v40.643H56.229c-4.487,0-8.129,3.642-8.129,8.129v364.445c0,4.503,3.642,8.129,8.129,8.129
			h317.014c4.495,0,8.129-3.625,8.129-8.129V56.9C381.372,52.413,377.739,48.771,373.244,48.771z M150.618,16.257H277.05v32.514
			H150.618V16.257z M365.115,413.216H64.358V100.591h300.757V413.216z M365.115,84.334H64.358V65.029h78.124h142.689h79.936v19.305
			H365.115z"/>
		<path style="fill:#010002;" d="M285.179,387.977c4.495,0,8.129-3.633,8.129-8.129V135.991c0-4.487-3.633-8.129-8.129-8.129
			s-8.129,3.642-8.129,8.129v243.857C277.05,384.343,280.692,387.977,285.179,387.977z"/>
		<path style="fill:#010002;" d="M142.49,387.977c4.487,0,8.129-3.633,8.129-8.129V135.991c0-4.487-3.642-8.129-8.129-8.129
			c-4.487,0-8.129,3.642-8.129,8.129v243.857C134.361,384.343,138.003,387.977,142.49,387.977z"/>
		<path style="fill:#010002;" d="M213.834,387.977c4.495,0,8.129-3.633,8.129-8.129V135.991c0-4.487-3.633-8.129-8.129-8.129
			c-4.487,0-8.129,3.642-8.129,8.129v243.857C205.706,384.343,209.347,387.977,213.834,387.977z"/>
	</g>
</g>
<g>
</g>
<g>
</g>
<g>
</g>
<g>
</g>
<g>
</g>
<g>
</g>
<g>
</g>
<g>
</g>
<g>
</g>
<g>
</g>
<g>
</g>
<g>
</g>
<g>
</g>
<g>
</g>
<g>
</g>
</svg>
